<?xml version="1.0" encoding="UTF-8" standalone="no"?>
<!DOCTYPE svg PUBLIC "-//W3C//DTD SVG 1.1//EN" "http://www.w3.org/Graphics/SVG/1.1/DTD/svg11.dtd">
<!-- Generated by Microsoft Visio, SVG Export NGSA.svg Page-1 -->
<svg xmlns="http://www.w3.org/2000/svg" xmlns:xlink="http://www.w3.org/1999/xlink" xmlns:ev="http://www.w3.org/2001/xml-events"
		xmlns:v="http://schemas.microsoft.com/visio/2003/SVGExtensions/" width="11in" height="8.5in" viewBox="0 0 792 612"
		xml:space="preserve" color-interpolation-filters="sRGB" class="st24">
	<v:documentProperties v:langID="1033" v:viewMarkup="false">
		<v:userDefs>
			<v:ud v:nameU="msvNoAutoConnect" v:val="VT0(1):26"/>
			<v:ud v:nameU="msvWarnOnPersonalInfo" v:val="VT0(0):5"/>
		</v:userDefs>
	</v:documentProperties>

	<style type="text/css">
	<![CDATA[
		.st1 {fill:none;stroke:#d8d8d8;stroke-dasharray:1.75,1.25;stroke-width:0.25}
		.st2 {fill:#ffffff;font-family:Calibri;font-size:0.75em}
		.st3 {fill:#50e6ff;stroke:none;stroke-linecap:butt;stroke-width:0.75}
		.st4 {fill:url(#grad7-11);stroke:none;stroke-linecap:butt;stroke-width:0.75}
		.st5 {fill:#f2f2f2;stroke:none;stroke-linecap:butt;stroke-width:0.75}
		.st6 {fill:#000000;font-family:Calibri;font-size:0.75em}
		.st7 {fill:#4672c4;stroke:#c7c8c8;stroke-width:0.25}
		.st8 {fill:#feffff;font-family:Calibri;font-size:1.00001em}
		.st9 {font-size:1em}
		.st10 {fill:url(#grad0-53);stroke:none;stroke-linecap:butt;stroke-width:0.75}
		.st11 {fill:none;stroke:none;stroke-linecap:butt;stroke-width:0.75}
		.st12 {fill:#341a6e;stroke:none;stroke-linecap:butt;stroke-width:0.75}
		.st13 {fill:#232f3e;stroke:none;stroke-linecap:butt;stroke-width:0.75}
		.st14 {marker-end:url(#mrkr4-111);stroke:#4672c4;stroke-linecap:round;stroke-linejoin:round;stroke-width:1}
		.st15 {fill:#4672c4;fill-opacity:1;stroke:#4672c4;stroke-opacity:1;stroke-width:0.28409090909091}
		.st16 {fill:none;stroke:none;stroke-width:0.25}
		.st17 {fill:#000000;font-family:Calibri;font-size:1.00001em}
		.st18 {marker-end:url(#mrkr4-120);stroke:#ed7d31;stroke-linecap:round;stroke-linejoin:round;stroke-width:1}
		.st19 {fill:#ed7d31;fill-opacity:1;stroke:#ed7d31;stroke-opacity:1;stroke-width:0.28409090909091}
		.st20 {marker-end:url(#mrkr4-129);stroke:#a5a5a5;stroke-linecap:round;stroke-linejoin:round;stroke-width:1}
		.st21 {fill:#a5a5a5;fill-opacity:1;stroke:#a5a5a5;stroke-opacity:1;stroke-width:0.28409090909091}
		.st22 {fill:#4672c4}
		.st23 {stroke:#4672c4;stroke-linecap:round;stroke-linejoin:round;stroke-width:1}
		.st24 {fill:none;fill-rule:evenodd;font-size:12px;overflow:visible;stroke-linecap:square;stroke-miterlimit:3}
	]]>
	</style>

	<defs id="Patterns_And_Gradients">
		<radialGradient id="grad7-11" cx="0" cy="0" r="1.4">
			<stop offset="0.185" stop-color="#5ea0ef" stop-opacity="1"/>
			<stop offset="1" stop-color="#0078d4" stop-opacity="1"/>
		</radialGradient>
		<linearGradient id="grad0-53" x1="0" y1="0" x2="1" y2="0" gradientTransform="rotate(0 0.5 0.5)">
			<stop offset="0" stop-color="#b77af4" stop-opacity="1"/>
			<stop offset="1" stop-color="#773adc" stop-opacity="1"/>
		</linearGradient>
	</defs>
	<defs id="Markers">
		<g id="lend4">
			<path d="M 2 1 L 0 0 L 2 -1 L 2 1 " style="stroke:none"/>
		</g>
		<marker id="mrkr4-111" class="st15" v:arrowType="4" v:arrowSize="2" v:setback="7.04" refX="-7.04" orient="auto"
				markerUnits="strokeWidth" overflow="visible">
			<use xlink:href="#lend4" transform="scale(-3.52,-3.52) "/>
		</marker>
		<marker id="mrkr4-120" class="st19" v:arrowType="4" v:arrowSize="2" v:setback="7.04" refX="-7.04" orient="auto"
				markerUnits="strokeWidth" overflow="visible">
			<use xlink:href="#lend4" transform="scale(-3.52,-3.52) "/>
		</marker>
		<marker id="mrkr4-129" class="st21" v:arrowType="4" v:arrowSize="2" v:setback="7.04" refX="-7.04" orient="auto"
				markerUnits="strokeWidth" overflow="visible">
			<use xlink:href="#lend4" transform="scale(-3.52,-3.52) "/>
		</marker>
	</defs>
	<g v:mID="0" v:index="1" v:groupContext="foregroundPage">
		<v:userDefs>
			<v:ud v:nameU="msvThemeOrder" v:val="VT0(0):26"/>
		</v:userDefs>
		<title>Page-1</title>
		<v:pageProperties v:drawingScale="1" v:pageScale="1" v:drawingUnits="19" v:shadowOffsetX="9" v:shadowOffsetY="-9"/>
		<v:layer v:name="Azure" v:index="0"/>
		<v:layer v:name="Connector" v:index="1"/>
		<g id="shape1-1" v:mID="1" v:groupContext="shape" v:layerMember="0" transform="translate(164.39,-128.426)">
			<title>Dotted Line Box No Fill.1</title>
			<desc>Dotted Line Box No Fill</desc>
			<v:textBlock v:margins="rect(4,4,4,4)"/>
			<v:textRect cx="232.916" cy="446.99" width="465.84" height="330.019"/>
			<path d="M0 612 L465.83 612 L465.83 281.98 L0 281.98 L0 612 Z" class="st1"/>
			<text x="191.35" y="449.69" class="st2" v:langID="16393"><v:paragraph v:horizAlign="1"/><v:tabList/>Dotted Line Box No Fill</text>		</g>
		<g id="group3-4" transform="translate(685.318,-326.261)" v:mID="3" v:groupContext="group">
			<title>Azure Cosmos DB.3</title>
			<desc>Azure Cosmos DB</desc>
			<g id="group4-5" v:mID="4" v:groupContext="group">
				<v:userDefs>
					<v:ud v:nameU="msvDisableCustomConnectionPoints" v:prompt="" v:val="VT0(1):5"/>
				</v:userDefs>
				<title>Sheet.4</title>
				<g id="shape5-6" v:mID="5" v:groupContext="shape" transform="translate(0.807321,0)">
					<title>Sheet.5</title>
					<v:userDefs>
						<v:ud v:nameU="msvDisableCustomConnectionPoints" v:prompt="" v:val="VT0(1):5"/>
					</v:userDefs>
					<path d="M4.63 587.09 C4.44 587.09 4.28 586.93 4.28 586.73 C4.28 586.73 4.28 586.73 4.28 586.73 C4.28 584.46
								 2.52 582.63 0.34 582.62 C0.15 582.62 0 582.47 0 582.27 C0 582.07 0.15 581.91 0.34 581.91 C2.52 581.91
								 4.28 580.07 4.28 577.8 C4.28 577.6 4.43 577.44 4.62 577.44 C4.62 577.44 4.62 577.44 4.63 577.44
								 C4.82 577.44 4.97 577.6 4.97 577.8 C4.97 577.8 4.97 577.8 4.97 577.8 C4.98 580.07 6.73 581.9 8.91
								 581.91 C9.1 581.91 9.25 582.06 9.25 582.26 C9.25 582.26 9.25 582.26 9.25 582.26 C9.25 582.46 9.1
								 582.62 8.91 582.62 C8.91 582.62 8.91 582.62 8.91 582.62 C6.73 582.63 4.97 584.46 4.97 586.73 C4.97
								 586.93 4.82 587.09 4.63 587.09 ZM29.43 612 C29.28 612 29.15 611.87 29.15 611.71 C29.15 609.9 27.74
								 608.43 26 608.43 C25.85 608.43 25.73 608.3 25.73 608.14 C25.73 607.98 25.85 607.85 26 607.85 C27.74
								 607.85 29.15 606.38 29.15 604.57 C29.15 604.41 29.28 604.28 29.43 604.28 C29.58 604.28 29.7 604.41
								 29.7 604.57 C29.7 606.38 31.12 607.85 32.85 607.85 C33.01 607.85 33.13 607.98 33.13 608.14 C33.13
								 608.3 33.01 608.43 32.85 608.43 C31.12 608.43 29.71 609.9 29.7 611.71 C29.7 611.87 29.58 612 29.43
								 612 Z" class="st3"/>
				</g>
				<g id="shape6-8" v:mID="6" v:groupContext="shape" transform="translate(4.04052,-3.56185)">
					<title>Sheet.6</title>
					<v:userDefs>
						<v:ud v:nameU="msvDisableCustomConnectionPoints" v:prompt="" v:val="VT0(1):5"/>
					</v:userDefs>
					<path d="M24.94 595.28 C26.48 602.01 22.5 608.78 16.03 610.39 C9.58 612 3.09 607.84 1.54 601.11 C0 594.37 3.99
								 587.6 10.45 585.99 C16.91 584.38 23.39 588.54 24.94 595.28 Z" class="st4"/>
				</g>
				<g id="group7-12" transform="translate(4.71852,-8.82596)" v:mID="7" v:groupContext="group">
					<v:userDefs>
						<v:ud v:nameU="msvDisableCustomConnectionPoints" v:prompt="" v:val="VT0(1):5"/>
					</v:userDefs>
					<title>Sheet.7</title>
					<g id="shape8-13" v:mID="8" v:groupContext="shape">
						<title>Sheet.8</title>
						<v:userDefs>
							<v:ud v:nameU="msvDisableCustomConnectionPoints" v:prompt="" v:val="VT0(1):5"/>
						</v:userDefs>
						<path d="M6.11 611.96 C7.89 612 9.36 610.55 9.41 608.7 C9.45 606.85 8.05 605.31 6.28 605.26 C6.23 605.26
									 6.18 605.26 6.12 605.26 C6.13 605.16 6.14 605.07 6.14 604.97 C6.12 603.12 4.67 601.62 2.88 601.63
									 L0.48 601.63 C0 605.38 1.14 609.17 3.6 611.96 L6.11 611.96 ZM24.41 601.12 C24.41 601.09 24.41
									 601.06 24.39 601.03 C24.01 598.85 23.05 596.81 21.64 595.15 C21.45 595.07 21.27 595.01 21.07
									 594.97 C19.19 594.41 17.24 595.54 16.7 597.5 C16.63 597.78 16.58 598.07 16.57 598.36 C16.44
									 598.35 16.31 598.34 16.18 598.34 C14.3 598.34 12.78 599.92 12.78 601.89 C12.78 603.39 13.68
									 604.73 15.04 605.23 C15.38 605.37 15.74 605.44 16.1 605.44 L20.08 605.44 C21.67 604.18 23.13
									 602.73 24.41 601.12 Z" class="st5"/>
					</g>
				</g>
				<g id="shape9-15" v:mID="9" v:groupContext="shape" transform="translate(0,-5.03523)">
					<title>Sheet.9</title>
					<v:userDefs>
						<v:ud v:nameU="msvDisableCustomConnectionPoints" v:prompt="" v:val="VT0(1):5"/>
					</v:userDefs>
					<path d="M33.33 589.19 C32.1 587.05 29.21 586.22 25.19 586.85 C23.81 587.05 22.45 587.36 21.11 587.77 C22.17
								 588.15 23.18 588.68 24.1 589.34 C24.57 589.23 25.05 589.1 25.51 589.03 C26.22 588.91 26.94 588.85
								 27.67 588.85 C29.1 588.63 30.55 589.19 31.51 590.33 C32.26 591.63 31.62 593.86 29.77 596.46 C27.19
								 599.8 24.04 602.61 20.46 604.73 C16.97 607.01 13.1 608.58 9.05 609.36 C5.99 609.83 3.8 609.36 3.05
								 608.06 C2.29 606.76 2.93 604.52 4.78 601.94 C5.01 601.62 5.07 601.46 5.33 601.14 C5.2 600.03 5.22
								 598.91 5.38 597.81 C4.55 598.68 3.78 599.62 3.09 600.61 C0.66 604 0 607.04 1.23 609.18 C2.55 611.02
								 4.72 612 6.91 611.73 C7.73 611.73 8.55 611.66 9.36 611.53 C13.69 610.7 17.82 609.04 21.55 606.62
								 C25.36 604.35 28.72 601.35 31.47 597.77 C33.9 594.38 34.56 591.34 33.33 589.19 Z" class="st3"/>
				</g>
			</g>
			<g id="shape3-17" v:mID="3" v:groupContext="groupContent">
				<v:textBlock v:margins="rect(0,0,0,0)"/>
				<v:textRect cx="17.28" cy="617.402" width="69.12" height="10.8036"/>
				<text x="-14.78" y="620.1" class="st6" v:langID="1033"><v:paragraph v:horizAlign="1"/><v:tabList/>Azure Cosmos DB</text>			</g>
		</g>
		<g id="shape10-19" v:mID="10" v:groupContext="shape" transform="translate(666.911,-401.27)">
			<title>Rectangle.10</title>
			<desc>Log Analytics</desc>
			<v:userDefs>
				<v:ud v:nameU="visVersion" v:val="VT0(15):26"/>
			</v:userDefs>
			<v:textBlock v:margins="rect(4,4,4,4)"/>
			<v:textRect cx="35.6868" cy="586.901" width="71.38" height="50.1984"/>
			<rect x="0" y="561.802" width="71.3736" height="50.1984" class="st7"/>
			<text x="27.18" y="583.3" class="st8" v:langID="1033"><v:paragraph v:horizAlign="1"/><v:tabList/>Log <tspan x="13.83"
						dy="1.2em" class="st9">Analytics</tspan></text>		</g>
		<g id="shape11-23" v:mID="11" v:groupContext="shape" transform="translate(524.657,-401.263)">
			<title>Rectangle.11</title>
			<desc>Log Processor and Forwarder:  Fluent Bit</desc>
			<v:userDefs>
				<v:ud v:nameU="visVersion" v:val="VT0(15):26"/>
			</v:userDefs>
			<v:textBlock v:margins="rect(4,4,4,4)"/>
			<v:textRect cx="44.4096" cy="586.901" width="88.82" height="50.1984"/>
			<rect x="0" y="561.802" width="88.8192" height="50.1984" class="st7"/>
			<text x="10.72" y="576.1" class="st8" v:langID="1033"><v:paragraph v:horizAlign="1"/><v:tabList/>Log Processor <tspan
						x="5.42" dy="1.2em" class="st9">and Forwarder:</tspan> <tspan x="20.97" dy="1.2em" class="st9">Fluent Bit</tspan></text>		</g>
		<g id="shape13-28" v:mID="13" v:groupContext="shape" transform="translate(365.119,-238.608)">
			<title>Rectangle.13</title>
			<desc>Metrics Collection: Prometheus</desc>
			<v:userDefs>
				<v:ud v:nameU="visVersion" v:val="VT0(15):26"/>
			</v:userDefs>
			<v:textBlock v:margins="rect(4,4,4,4)"/>
			<v:textRect cx="44.4096" cy="586.901" width="88.82" height="50.1984"/>
			<rect x="0" y="561.802" width="88.8192" height="50.1984" class="st7"/>
			<text x="25.93" y="576.1" class="st8" v:langID="1033"><v:paragraph v:horizAlign="1"/><v:tabList/>Metrics <tspan
						x="18.46" dy="1.2em" class="st9">Collection:<v:newlineChar/><v:paragraph v:horizAlign="1"/></tspan><tspan
						x="14.63" dy="1.2em" class="st9">Prometheus</tspan></text>		</g>
		<g id="shape14-33" v:mID="14" v:groupContext="shape" transform="translate(453.924,-153.216)">
			<title>Rectangle.14</title>
			<desc>Dashboard: Grafana</desc>
			<v:userDefs>
				<v:ud v:nameU="visVersion" v:val="VT0(15):26"/>
			</v:userDefs>
			<v:textBlock v:margins="rect(4,4,4,4)"/>
			<v:textRect cx="44.4096" cy="586.901" width="88.82" height="50.1984"/>
			<rect x="0" y="561.802" width="88.8192" height="50.1984" class="st7"/>
			<text x="16.31" y="583.3" class="st8" v:langID="1033"><v:paragraph v:horizAlign="1"/><v:tabList/>Dashboard:<v:newlineChar/><v:paragraph
						v:horizAlign="1"/><tspan x="24.93" dy="1.2em" class="st9">Grafana</tspan></text>		</g>
		<g id="shape15-37" v:mID="15" v:groupContext="shape" transform="translate(658.188,-479.808)">
			<title>Rectangle.15</title>
			<desc>Dashboard: Azure Monitor</desc>
			<v:userDefs>
				<v:ud v:nameU="visVersion" v:val="VT0(15):26"/>
			</v:userDefs>
			<v:textBlock v:margins="rect(4,4,4,4)"/>
			<v:textRect cx="44.4096" cy="586.901" width="88.82" height="50.1984"/>
			<rect x="0" y="561.802" width="88.8192" height="50.1984" class="st7"/>
			<text x="16.31" y="583.3" class="st8" v:langID="1033"><v:paragraph v:horizAlign="1"/><v:tabList/>Dashboard:<v:newlineChar/><v:paragraph
						v:horizAlign="1"/><tspan x="8.89" dy="1.2em" class="st9">Azure Monitor</tspan></text>		</g>
		<g id="shape16-41" v:mID="16" v:groupContext="shape" transform="translate(276.3,-153.216)">
			<title>Rectangle.16</title>
			<desc>Autoscaler: KEDA</desc>
			<v:userDefs>
				<v:ud v:nameU="visVersion" v:val="VT0(15):26"/>
			</v:userDefs>
			<v:textBlock v:margins="rect(4,4,4,4)"/>
			<v:textRect cx="44.4096" cy="586.901" width="88.82" height="50.1984"/>
			<rect x="0" y="561.802" width="88.8192" height="50.1984" class="st7"/>
			<text x="16.79" y="583.3" class="st8" v:langID="1033"><v:paragraph v:horizAlign="1"/><v:tabList/>Autoscaler:<v:newlineChar/><v:paragraph
						v:horizAlign="1"/><tspan x="31.2" dy="1.2em" class="st9">KEDA</tspan></text>		</g>
		<g id="shape17-45" v:mID="17" v:groupContext="shape" transform="translate(183.593,-318.442)">
			<title>Rectangle.17</title>
			<desc>Ingress: Istio</desc>
			<v:userDefs>
				<v:ud v:nameU="visVersion" v:val="VT0(15):26"/>
			</v:userDefs>
			<v:textBlock v:margins="rect(4,4,4,4)"/>
			<v:textRect cx="44.4096" cy="586.901" width="88.82" height="50.1984"/>
			<rect x="0" y="561.802" width="88.8192" height="50.1984" class="st7"/>
			<text x="25.55" y="583.3" class="st8" v:langID="1033"><v:paragraph v:horizAlign="1"/><v:tabList/>Ingress:<v:newlineChar/><v:paragraph
						v:horizAlign="1"/><tspan x="34" dy="1.2em" class="st9">Istio</tspan></text>		</g>
		<g id="group18-49" transform="translate(174.845,-416.909)" v:mID="18" v:groupContext="group">
			<title>Kubernetes Services.18</title>
			<g id="shape19-50" v:mID="19" v:groupContext="shape" transform="translate(5.61982,-23.6051)">
				<title>Sheet.19</title>
				<v:userDefs>
					<v:ud v:nameU="msvDisableCustomConnectionPoints" v:prompt="" v:val="VT0(1):5"/>
				</v:userDefs>
				<path d="M5.47 601.05 L0 602.2 L0 610.67 L5.47 612 L10.95 609.5 L10.95 603.18 L5.47 601.05 Z" class="st10"/>
			</g>
			<g id="shape20-54" v:mID="20" v:groupContext="shape" transform="translate(5.73451,-23.7101)">
				<title>Sheet.20</title>
				<v:userDefs>
					<v:ud v:nameU="msvDisableCustomConnectionPoints" v:prompt="" v:val="VT0(1):5"/>
				</v:userDefs>
				<path d="M5.56 611.97 L10.57 609.67 a0.382301 0.434717 -180 0 0 0.229381 -0.304302 L10.8 603.63 a0.401416 0.456453
							 -180 0 0 -0.248496 -0.391245 L5.49 601.28 L5.26 601.28 L0.29 602.32 a0.382301 0.434717 -180 0 0 -0.286726
							 0.391245 L0 610.39 a0.363186 0.412981 -180 0 0 0.286726 0.412981 L5.31 612 a0.611681 0.695547 -180 0
							 0 0.248496 -0.0217358 Z" class="st11"/>
			</g>
			<g id="shape21-56" v:mID="21" v:groupContext="shape" transform="translate(5.61982,-23.6051)">
				<title>Sheet.21</title>
				<v:userDefs>
					<v:ud v:nameU="msvDisableCustomConnectionPoints" v:prompt="" v:val="VT0(1):5"/>
				</v:userDefs>
				<path d="M0 602.2 L0 610.67 L5.52 612 L5.52 601.13 L0 602.2 ZM2.33 610.02 L0.78 609.67 L0.78 603.15 L2.33 602.87
							 L2.33 610.02 ZM4.74 610.52 L2.96 610.2 L2.96 602.74 L4.74 602.39 L4.74 610.52 Z" class="st12"/>
			</g>
			<g id="shape22-58" v:mID="22" v:groupContext="shape" transform="translate(17.452,-23.4965)">
				<title>Sheet.22</title>
				<v:userDefs>
					<v:ud v:nameU="msvDisableCustomConnectionPoints" v:prompt="" v:val="VT0(1):5"/>
				</v:userDefs>
				<path d="M5.47 601.05 L0 602.2 L0 610.67 L5.47 612 L10.93 609.48 L10.93 603.18 L5.47 601.05 Z" class="st10"/>
			</g>
			<g id="shape23-61" v:mID="23" v:groupContext="shape" transform="translate(17.452,-23.4965)">
				<title>Sheet.23</title>
				<v:userDefs>
					<v:ud v:nameU="msvDisableCustomConnectionPoints" v:prompt="" v:val="VT0(1):5"/>
				</v:userDefs>
				<path d="M0 602.2 L0 610.67 L5.49 612 L5.49 601.13 L0 602.2 ZM2.31 610.02 L0.76 609.67 L0.76 603.15 L2.31 602.87
							 L2.31 610.02 ZM4.72 610.52 L2.94 610.2 L2.94 602.74 L4.72 602.37 L4.72 610.52 Z" class="st12"/>
			</g>
			<g id="shape24-63" v:mID="24" v:groupContext="shape" transform="translate(0.019115,-11.9112)">
				<title>Sheet.24</title>
				<v:userDefs>
					<v:ud v:nameU="msvDisableCustomConnectionPoints" v:prompt="" v:val="VT0(1):5"/>
				</v:userDefs>
				<path d="M5.47 601.05 L0 602.2 L0 610.67 L5.47 612 L10.95 609.5 L10.95 603.18 L5.47 601.05 Z" class="st10"/>
			</g>
			<g id="shape25-66" v:mID="25" v:groupContext="shape" transform="translate(3.44724E-14,-11.9765)">
				<title>Sheet.25</title>
				<v:userDefs>
					<v:ud v:nameU="msvDisableCustomConnectionPoints" v:prompt="" v:val="VT0(1):5"/>
				</v:userDefs>
				<path d="M0 602.26 L0 610.67 L5.52 612 L5.52 601.13 L0 602.26 ZM2.31 610.11 L0.76 609.74 L0.76 603.22 L2.31 602.91
							 L2.31 610.11 ZM4.74 610.67 L2.96 610.35 L2.96 602.81 L4.74 602.46 L4.74 610.67 Z" class="st12"/>
			</g>
			<g id="shape26-68" v:mID="26" v:groupContext="shape" transform="translate(11.8131,-11.9765)">
				<title>Sheet.26</title>
				<v:userDefs>
					<v:ud v:nameU="msvDisableCustomConnectionPoints" v:prompt="" v:val="VT0(1):5"/>
				</v:userDefs>
				<path d="M5.47 601.02 L0 602.18 L0 610.65 L5.47 612 L10.93 609.48 L10.93 603.15 L5.47 601.02 Z" class="st10"/>
			</g>
			<g id="shape27-71" v:mID="27" v:groupContext="shape" transform="translate(11.8131,-11.9765)">
				<title>Sheet.27</title>
				<v:userDefs>
					<v:ud v:nameU="msvDisableCustomConnectionPoints" v:prompt="" v:val="VT0(1):5"/>
				</v:userDefs>
				<path d="M0 602.18 L0 610.67 L5.51 612 L5.51 601.13 L0 602.18 ZM2.31 610.02 L0.76 609.65 L0.76 603.13 L2.31 602.83
							 L2.31 610.02 ZM4.72 610.5 L2.94 610.17 L2.94 602.72 L4.72 602.37 L4.72 610.5 Z" class="st12"/>
			</g>
			<g id="shape28-73" v:mID="28" v:groupContext="shape" transform="translate(23.6071,-11.8895)">
				<title>Sheet.28</title>
				<v:userDefs>
					<v:ud v:nameU="msvDisableCustomConnectionPoints" v:prompt="" v:val="VT0(1):5"/>
				</v:userDefs>
				<path d="M5.47 601.05 L0 602.2 L0 610.67 L5.47 612 L10.95 609.5 L10.95 603.18 L5.47 601.05 Z" class="st10"/>
			</g>
			<g id="shape29-76" v:mID="29" v:groupContext="shape" transform="translate(23.6071,-11.9765)">
				<title>Sheet.29</title>
				<v:userDefs>
					<v:ud v:nameU="msvDisableCustomConnectionPoints" v:prompt="" v:val="VT0(1):5"/>
				</v:userDefs>
				<path d="M0 602.28 L0 610.67 L5.52 612 L5.52 601.13 L0 602.28 ZM2.33 610.13 L0.78 609.76 L0.78 603.24 L2.33 602.94
							 L2.33 610.13 ZM4.74 610.61 L2.96 610.28 L2.96 602.83 L4.74 602.48 L4.74 610.61 Z" class="st12"/>
			</g>
			<g id="shape30-78" v:mID="30" v:groupContext="shape" transform="translate(5.48602,-0.0869434)">
				<title>Sheet.30</title>
				<v:userDefs>
					<v:ud v:nameU="msvDisableCustomConnectionPoints" v:prompt="" v:val="VT0(1):5"/>
				</v:userDefs>
				<path d="M5.47 601.05 L0 602.18 L0 610.65 L5.47 612 L10.95 609.48 L10.95 603.18 L5.47 601.05 Z" class="st10"/>
			</g>
			<g id="shape31-81" v:mID="31" v:groupContext="shape" transform="translate(5.58159,-0.237114)">
				<title>Sheet.31</title>
				<v:userDefs>
					<v:ud v:nameU="msvDisableCustomConnectionPoints" v:prompt="" v:val="VT0(1):5"/>
				</v:userDefs>
				<path d="M5.58 611.98 L10.57 609.8 a0.344071 0.391245 -180 0 0 0.229381 -0.391245 L10.8 603.76 a0.382301 0.434717
							 -180 0 0 -0.248496 -0.478189 L5.51 601.33 a0.324956 0.369509 -180 0 0 -0.229381 0 L0.31 602.35 a0.363186
							 0.412981 -180 0 0 -0.305841 0.412981 L0 610.45 a0.363186 0.412981 -180 0 0 0.286726 0.412981 L5.31 611.98
							 a0.439646 0.499925 -180 0 0 0.267611 0 Z" class="st11"/>
			</g>
			<g id="shape32-83" v:mID="32" v:groupContext="shape" transform="translate(5.48602,-0.0869434)">
				<title>Sheet.32</title>
				<v:userDefs>
					<v:ud v:nameU="msvDisableCustomConnectionPoints" v:prompt="" v:val="VT0(1):5"/>
				</v:userDefs>
				<path d="M0 602.18 L0 610.65 L5.52 612 L5.52 600.96 L0 602.18 ZM2.33 610.02 L0.78 609.65 L0.78 603.13 L2.33 602.83
							 L2.33 610.02 ZM4.74 610.52 L2.96 610.2 L2.96 602.72 L4.74 602.37 L4.74 610.52 Z" class="st12"/>
			</g>
			<g id="shape33-85" v:mID="33" v:groupContext="shape" transform="translate(17.2991,-1.13687E-13)">
				<title>Sheet.33</title>
				<v:userDefs>
					<v:ud v:nameU="msvDisableCustomConnectionPoints" v:prompt="" v:val="VT0(1):5"/>
				</v:userDefs>
				<path d="M5.47 601.05 L0 602.2 L0 610.67 L5.47 612 L10.95 609.5 L10.95 603.18 L5.47 601.05 Z" class="st10"/>
			</g>
			<g id="shape34-88" v:mID="34" v:groupContext="shape" transform="translate(17.2991,-1.13687E-13)">
				<title>Sheet.34</title>
				<v:userDefs>
					<v:ud v:nameU="msvDisableCustomConnectionPoints" v:prompt="" v:val="VT0(1):5"/>
				</v:userDefs>
				<path d="M0 602.2 L0 610.67 L5.52 612 L5.52 601.13 L0 602.2 ZM2.33 610.04 L0.78 609.67 L0.78 603.15 L2.33 602.85
							 L2.33 610.04 ZM4.74 610.52 L2.96 610.2 L2.96 602.74 L4.74 602.39 L4.74 610.52 Z" class="st12"/>
			</g>
		</g>
		<g id="shape35-90" v:mID="35" v:groupContext="shape" transform="translate(365.105,-318.442)">
			<title>Rectangle.35</title>
			<desc>App: ngsa-aks</desc>
			<v:userDefs>
				<v:ud v:nameU="visVersion" v:val="VT0(15):26"/>
			</v:userDefs>
			<v:textBlock v:margins="rect(4,4,4,4)"/>
			<v:textRect cx="44.4096" cy="586.901" width="88.82" height="50.1984"/>
			<rect x="0" y="561.802" width="88.8192" height="50.1984" class="st7"/>
			<text x="33.03" y="583.3" class="st8" v:langID="1033"><v:paragraph v:horizAlign="1"/><v:tabList/>App:<v:newlineChar/><v:paragraph
						v:horizAlign="1"/><tspan x="23.43" dy="1.2em" class="st9">ngsa</tspan>-aks</text>		</g>
		<g id="shape36-94" v:mID="36" v:groupContext="shape" transform="translate(365.119,-401.27)">
			<title>Rectangle.36</title>
			<desc>Constant Load: l8r-loderunner</desc>
			<v:userDefs>
				<v:ud v:nameU="visVersion" v:val="VT0(15):26"/>
			</v:userDefs>
			<v:textBlock v:margins="rect(4,4,4,4)"/>
			<v:textRect cx="44.4096" cy="586.901" width="88.82" height="50.1984"/>
			<rect x="0" y="561.802" width="88.8192" height="50.1984" class="st7"/>
			<text x="7.83" y="583.3" class="st8" v:langID="1033"><v:paragraph v:horizAlign="1"/><v:tabList/>Constant Load:<v:newlineChar/><v:paragraph
						v:horizAlign="1"/><tspan x="8.76" dy="1.2em" class="st9">l8r</tspan>-loderunner</text>		</g>
		<g id="group37-98" transform="translate(54.9,-325.541)" v:mID="37" v:groupContext="group">
			<v:userDefs>
				<v:ud v:nameU="msvDisableCustomConnectionPoints" v:prompt="" v:val="VT4(True)"/>
			</v:userDefs>
			<title>User.37</title>
			<desc>External User</desc>
			<g id="group38-99" v:mID="38" v:groupContext="group">
				<v:userDefs>
					<v:ud v:nameU="msvDisableCustomConnectionPoints" v:prompt="" v:val="VT0(1):5"/>
				</v:userDefs>
				<title>Sheet.38</title>
				<g id="shape39-100" v:mID="39" v:groupContext="shape">
					<title>Sheet.39</title>
					<v:userDefs>
						<v:ud v:nameU="msvDisableCustomConnectionPoints" v:prompt="" v:val="VT0(1):5"/>
					</v:userDefs>
					<path d="M35.23 612 L0.77 612 C0.57 612 0.37 611.92 0.23 611.78 C0.08 611.63 0 611.44 0 611.23 L0 608.93 C0 605.02
								 1.31 601.22 3.72 598.14 C6.13 595.07 9.5 592.89 13.3 591.97 C13.48 591.93 13.68 591.95 13.85 592.04
								 C15.12 592.73 16.54 593.1 17.99 593.1 C19.44 593.1 20.86 592.73 22.14 592.04 C22.3 591.95 22.5 591.93
								 22.68 591.97 C26.48 592.89 29.86 595.06 32.27 598.14 C34.69 601.22 36 605.02 36 608.94 L36 611.24
								 C36 611.44 35.91 611.64 35.77 611.78 C35.63 611.92 35.44 612 35.23 612 ZM1.53 610.47 L34.47 610.47
								 L34.47 608.93 C34.47 605.41 33.3 601.99 31.15 599.21 C29.01 596.42 26 594.43 22.6 593.54 C21.17
								 594.26 19.6 594.64 18 594.64 C16.4 594.64 14.83 594.27 13.41 593.54 C10 594.43 6.99 596.42 4.85
								 599.21 C2.7 602 1.53 605.42 1.53 608.94 L1.53 610.47 Z" class="st13"/>
				</g>
				<g id="shape40-102" v:mID="40" v:groupContext="shape" transform="translate(8.71815,-17.4064)">
					<title>Sheet.40</title>
					<v:userDefs>
						<v:ud v:nameU="msvDisableCustomConnectionPoints" v:prompt="" v:val="VT0(1):5"/>
					</v:userDefs>
					<path d="M9.28 611.99 C7.7 612 6.15 611.6 4.76 610.84 C3.34 610.04 2.15 608.88 1.31 607.47 C0.48 606.06 0.03
								 604.45 0.02 602.81 C0 601.17 0.42 599.56 1.22 598.13 C2.03 596.71 3.2 595.52 4.61 594.69 C6.02 593.86
								 7.63 593.42 9.26 593.41 C10.9 593.41 12.51 593.83 13.93 594.65 C15.35 595.46 16.52 596.64 17.34
								 598.06 C18.16 599.47 18.6 601.08 18.6 602.72 C18.6 604.39 18.15 606.02 17.3 607.45 C16.45 608.88
								 15.22 610.05 13.76 610.84 C12.38 611.59 10.85 611.98 9.28 611.99 ZM9.28 594.96 C7.55 594.93 5.86
								 595.48 4.48 596.52 C3.1 597.57 2.11 599.05 1.67 600.72 C1.23 602.4 1.36 604.18 2.04 605.77 C2.73
								 607.36 3.93 608.67 5.45 609.5 C6.61 610.13 7.91 610.46 9.22 610.46 C10.54 610.46 11.84 610.13 13
								 609.5 C14.51 608.68 15.7 607.37 16.39 605.79 C17.08 604.22 17.22 602.45 16.79 600.78 C16.37 599.11
								 15.4 597.63 14.03 596.58 C12.67 595.53 11 594.96 9.28 594.96 Z" class="st13"/>
				</g>
			</g>
			<g id="shape37-104" v:mID="37" v:groupContext="groupContent">
				<v:textBlock v:margins="rect(0,0,0,0)"/>
				<v:textRect cx="18" cy="617.402" width="72" height="10.8036"/>
				<text x="-6.49" y="620.1" class="st6" v:langID="1033"><v:paragraph v:horizAlign="1"/><v:tabList/>External User</text>			</g>
		</g>
		<g id="shape47-106" v:mID="47" v:groupContext="shape" v:layerMember="1" transform="translate(83.751,-515.8)">
			<title>Dynamic connector.47</title>
			<path d="M0 603 L33.07 603" class="st14"/>
		</g>
		<g id="shape48-112" v:mID="48" v:groupContext="shape" transform="translate(124.25,-512.928)">
			<title>Sheet.48</title>
			<desc>​Request Flow</desc>
			<v:textBlock v:margins="rect(4,4,4,4)"/>
			<v:textRect cx="44.4096" cy="601.56" width="88.82" height="20.88"/>
			<rect x="0" y="591.12" width="88.8192" height="20.88" class="st16"/>
			<text x="0.333em" y="605.16" class="st17" v:langID="1033"><v:paragraph/><v:tabList/>​Request Flow</text>		</g>
		<g id="shape49-115" v:mID="49" v:groupContext="shape" v:layerMember="1" transform="translate(84.0512,-499.24)">
			<title>Dynamic connector.49</title>
			<path d="M0 603 L33.07 603" class="st18"/>
		</g>
		<g id="shape50-121" v:mID="50" v:groupContext="shape" transform="translate(124.25,-496.368)">
			<title>Sheet.50</title>
			<desc>Log Flow</desc>
			<v:textBlock v:margins="rect(4,4,4,4)"/>
			<v:textRect cx="44.4096" cy="601.56" width="88.82" height="20.88"/>
			<rect x="0" y="591.12" width="88.8192" height="20.88" class="st16"/>
			<text x="4" y="605.16" class="st17" v:langID="1033"><v:paragraph/><v:tabList/>Log Flow</text>		</g>
		<g id="shape51-124" v:mID="51" v:groupContext="shape" v:layerMember="1" transform="translate(84.0512,-482.68)">
			<title>Dynamic connector.51</title>
			<path d="M0 603 L33.07 603" class="st20"/>
		</g>
		<g id="shape52-130" v:mID="52" v:groupContext="shape" transform="translate(124.25,-479.808)">
			<title>Sheet.52</title>
			<desc>Metric Flow</desc>
			<v:textBlock v:margins="rect(4,4,4,4)"/>
			<v:textRect cx="44.4096" cy="601.56" width="88.82" height="20.88"/>
			<rect x="0" y="591.12" width="88.8192" height="20.88" class="st16"/>
			<text x="4" y="605.16" class="st17" v:langID="1033"><v:paragraph/><v:tabList/>Metric Flow</text>		</g>
		<g id="shape53-133" v:mID="53" v:groupContext="shape" v:layerMember="1" transform="translate(453.938,-435.366)">
			<title>Dynamic connector.53</title>
			<path d="M0 621 L13.5 621 L13.5 621 L63.68 621" class="st18"/>
		</g>
		<g id="shape54-138" v:mID="54" v:groupContext="shape" v:layerMember="1" transform="translate(453.745,-355.957)">
			<title>Dynamic connector.54</title>
			<path d="M0 612 L13.68 612 L13.68 541.59 L63.87 541.59" class="st18"/>
		</g>
		<g id="shape55-143" v:mID="55" v:groupContext="shape" v:layerMember="1" transform="translate(613.476,-417.366)">
			<title>Dynamic connector.55</title>
			<path d="M0 603 L13.5 603 L13.5 603 L46.39 603" class="st18"/>
		</g>
		<g id="shape56-148" v:mID="56" v:groupContext="shape" v:layerMember="1" transform="translate(693.598,-451.469)">
			<title>Dynamic connector.56</title>
			<path d="M9 612 L9 590.7" class="st18"/>
		</g>
		<g id="shape60-153" v:mID="60" v:groupContext="shape" v:layerMember="1" transform="translate(400.522,-318.442)">
			<title>Dynamic connector.60</title>
			<path d="M8.99 612 L8.99 625.5 L9.01 625.5 L9.01 634.6" class="st20"/>
		</g>
		<g id="shape61-158" v:mID="61" v:groupContext="shape" v:layerMember="1" transform="translate(228.002,-318.442)">
			<title>Dynamic connector.61</title>
			<path d="M0 612 L0 666.73 L130.08 666.73" class="st20"/>
		</g>
		<g id="shape62-163" v:mID="62" v:groupContext="shape" v:layerMember="1" transform="translate(409.529,-238.608)">
			<title>Dynamic connector.62</title>
			<path d="M0 612 L0 633.69 L-88.82 633.69 L-88.82 640.15" class="st20"/>
		</g>
		<g id="shape63-168" v:mID="63" v:groupContext="shape" v:layerMember="1" transform="translate(409.529,-238.608)">
			<title>Dynamic connector.63</title>
			<path d="M0 612 L0 633.69 L88.8 633.69 L88.8 640.15" class="st20"/>
		</g>
		<g id="shape73-173" v:mID="73" v:groupContext="shape" v:layerMember="1" transform="translate(90.9,-343.541)">
			<title>Line Double Arrow.73</title>
			<v:userDefs>
				<v:ud v:nameU="Scale" v:val="VT0(1):26"/>
				<v:ud v:nameU="AntiScale" v:val="VT0(1):26"/>
				<v:ud v:nameU="visVersion" v:val="VT0(17):26"/>
			</v:userDefs>
			<path d="M5.67 609.17 L5.67 614.83 L0 612 L5.67 609.17 ZM87.03 609.17 L87.03 614.83 L92.69 612 L87.03 609.17 Z"
					class="st22"/>
			<path d="M5.67 609.17 L5.67 614.83 L0 612 L5.67 609.17" class="st23"/>
			<path d="M87.03 609.17 L87.03 614.83 L92.69 612 L87.03 609.17" class="st23"/>
			<path d="M5.67 612 L87.03 612" class="st23"/>
		</g>
		<g id="shape74-178" v:mID="74" v:groupContext="shape" v:layerMember="1" transform="translate(272.412,-343.541)">
			<title>Line Double Arrow.74</title>
			<v:userDefs>
				<v:ud v:nameU="Scale" v:val="VT0(1):26"/>
				<v:ud v:nameU="AntiScale" v:val="VT0(1):26"/>
				<v:ud v:nameU="visVersion" v:val="VT0(17):26"/>
			</v:userDefs>
			<path d="M5.67 609.17 L5.67 614.83 L0 612 L5.67 609.17 ZM87.03 609.17 L87.03 614.83 L92.69 612 L87.03 609.17 Z"
					class="st22"/>
			<path d="M5.67 609.17 L5.67 614.83 L0 612 L5.67 609.17" class="st23"/>
			<path d="M87.03 609.17 L87.03 614.83 L92.69 612 L87.03 609.17" class="st23"/>
			<path d="M5.67 612 L87.03 612" class="st23"/>
		</g>
		<g id="shape72-183" v:mID="72" v:groupContext="shape" v:layerMember="1" transform="translate(453.924,-343.541)">
			<title>Line Double Arrow.72</title>
			<v:userDefs>
				<v:ud v:nameU="Scale" v:val="VT0(1):26"/>
				<v:ud v:nameU="AntiScale" v:val="VT0(1):26"/>
				<v:ud v:nameU="visVersion" v:val="VT0(17):26"/>
			</v:userDefs>
			<path d="M5.67 609.17 L5.67 614.83 L0 612 L5.67 609.17 ZM225.73 609.17 L225.73 614.83 L231.39 612 L225.73 609.17 Z"
					class="st22"/>
			<path d="M5.67 609.17 L5.67 614.83 L0 612 L5.67 609.17" class="st23"/>
			<path d="M225.73 609.17 L225.73 614.83 L231.39 612 L225.73 609.17" class="st23"/>
			<path d="M5.67 612 L225.73 612" class="st23"/>
		</g>
		<g id="shape69-188" v:mID="69" v:groupContext="shape" v:layerMember="1" transform="translate(374.118,-426.37)">
			<title>Dynamic connector.69</title>
			<path d="M-9 612 L-38.73 612 L-38.73 683.39 L-16.04 683.39" class="st14"/>
		</g>
		<g id="shape71-193" v:mID="71" v:groupContext="shape" v:layerMember="1" transform="translate(356.118,-354.982)">
			<title>Dynamic connector.71</title>
			<path d="M9 612 L-20.73 612 L-20.73 540.61 L1.96 540.61" class="st14"/>
		</g>
	</g>
</svg>
